<?xml version='1.0' encoding='utf-8'?>
<svg xmlns="http://www.w3.org/2000/svg" enable-background="new 0 0 841.9 595.3" version="1.1" viewBox="0 0 841.9 595.3"> <style type="text/css">.st0{fill:#F2A4B6;} .st1{fill:#D7E9D4;} .st2{fill:#FFFFFF;} .st3{fill:#839D80;} .st4{fill:#D68A9E;} .st5{opacity:0.31;fill:url(#b);stroke:url(#a);stroke-miterlimit:10;}</style> <rect class="st0" width="841.9" height="595.3"/> <path class="st1" d="m420.6 239.4c3.8-4.4 7.2-9.6 11.7-13.4 18.3-15.3 44.8-6 50.5 17.2 3.1 12.8 0 24.3-6.1 35.4-8.9 16.1-21.7 28.7-35.6 40.3-5.8 4.8-11.9 9.2-18.1 13.6-0.9 0.6-2.9 0.8-3.7 0.3-19.7-13.6-37.8-28.9-51-49.2-6.6-10.1-11.2-20.9-10.3-33.3 0.7-10.1 4.5-18.9 12.6-25.3 13.6-10.8 32.6-8.3 44 5.6 2.3 3 4.2 6.2 6 8.8z"/> <ellipse class="st2" transform="matrix(.866 -.5 .5 .866 -56.769 267.39)" cx="470.6" cy="239.6" rx="4.6" ry="12.3"/> <circle class="st3" cx="384.3" cy="266.7" r="3.4"/> <circle class="st3" cx="420.9" cy="266.7" r="3.4"/> <path class="st4" d="m403.4 278.8c-0.5 0.6-1 0.9-1.5 1.1s-1 0.2-1.5 0.2-0.9-0.2-1.4-0.4c-0.5-0.3-0.9-0.6-1.3-1.3 0.5-0.6 1-0.9 1.5-1.1s1-0.2 1.5-0.2 0.9 0.2 1.4 0.4c0.4 0.3 0.9 0.7 1.3 1.3z"/> <radialGradient id="b" cx="420.94" cy="213.62" r="50.292" gradientTransform="matrix(1 0 0 .1582 0 325.92)" gradientUnits="userSpaceOnUse"> <stop stop-color="#1E0001" stop-opacity=".95" offset="0"/> <stop stop-color="#161412" stop-opacity="0" offset="1"/> </radialGradient> <radialGradient id="a" cx="420.94" cy="213.62" r="50.792" gradientTransform="matrix(1 0 0 .5273 0 247.06)" gradientUnits="userSpaceOnUse"> <stop stop-color="#1F0000" stop-opacity=".95" offset="0"/> <stop stop-color="#161412" stop-opacity=".7484" offset=".2122"/> <stop stop-color="#1F0000" stop-opacity=".57" offset=".7572"/> <stop stop-color="#161412" stop-opacity="0" offset="1"/> </radialGradient> <ellipse class="st5" cx="420.9" cy="359.7" rx="50.3" ry="26.5"/> </svg>